<?xml version="1.0" encoding="UTF-8" standalone="no"?>
<!DOCTYPE svg PUBLIC "-//W3C//DTD SVG 1.1//EN"
 "http://www.w3.org/Graphics/SVG/1.1/DTD/svg11.dtd">
<!-- Generated by graphviz version 2.38.0 (20140413.2041)
 -->
<!-- Title: unix Pages: 1 -->
<svg width="432pt" height="329pt"
 viewBox="0.00 0.00 432.00 329.13" xmlns="http://www.w3.org/2000/svg" xmlns:xlink="http://www.w3.org/1999/xlink">
<g id="graph0" class="graph" transform="scale(0.430799 0.430799) rotate(0) translate(4 760)">
<title>unix</title>
<polygon fill="white" stroke="none" points="-4,4 -4,-760 998.789,-760 998.789,4 -4,4"/>
<!-- 5th Edition -->
<g id="node1" class="node"><title>5th Edition</title>
<ellipse fill="#b2dfee" stroke="#b2dfee" cx="615.42" cy="-738" rx="54.4553" ry="18"/>
<text text-anchor="middle" x="615.42" y="-733.8" font-family="Times,serif" font-size="14.00">5th Edition</text>
</g>
<!-- 6th Edition -->
<g id="node2" class="node"><title>6th Edition</title>
<ellipse fill="#b2dfee" stroke="#b2dfee" cx="450.42" cy="-666" rx="54.4553" ry="18"/>
<text text-anchor="middle" x="450.42" y="-661.8" font-family="Times,serif" font-size="14.00">6th Edition</text>
</g>
<!-- 5th Edition&#45;&gt;6th Edition -->
<g id="edge1" class="edge"><title>5th Edition&#45;&gt;6th Edition</title>
<path fill="none" stroke="black" d="M583.215,-723.337C557.094,-712.256 520.097,-696.56 491.785,-684.548"/>
<polygon fill="black" stroke="black" points="493.117,-681.312 482.545,-680.628 490.383,-687.756 493.117,-681.312"/>
</g>
<!-- PWB 1.0 -->
<g id="node3" class="node"><title>PWB 1.0</title>
<ellipse fill="#b2dfee" stroke="#b2dfee" cx="716.42" cy="-666" rx="46.3913" ry="18"/>
<text text-anchor="middle" x="716.42" y="-661.8" font-family="Times,serif" font-size="14.00">PWB 1.0</text>
</g>
<!-- 5th Edition&#45;&gt;PWB 1.0 -->
<g id="edge2" class="edge"><title>5th Edition&#45;&gt;PWB 1.0</title>
<path fill="none" stroke="black" d="M637.836,-721.465C652.154,-711.541 670.889,-698.556 686.475,-687.755"/>
<polygon fill="black" stroke="black" points="688.536,-690.584 694.761,-682.011 684.548,-684.831 688.536,-690.584"/>
</g>
<!-- LSX -->
<g id="node4" class="node"><title>LSX</title>
<ellipse fill="#b2dfee" stroke="#b2dfee" cx="622.42" cy="-594" rx="29.0529" ry="18"/>
<text text-anchor="middle" x="622.42" y="-589.8" font-family="Times,serif" font-size="14.00">LSX</text>
</g>
<!-- 6th Edition&#45;&gt;LSX -->
<g id="edge3" class="edge"><title>6th Edition&#45;&gt;LSX</title>
<path fill="none" stroke="black" d="M484.157,-651.899C511.114,-641.348 549.812,-626.017 583.42,-612 585.606,-611.088 587.856,-610.138 590.12,-609.174"/>
<polygon fill="black" stroke="black" points="591.574,-612.359 599.375,-605.19 588.806,-605.929 591.574,-612.359"/>
</g>
<!-- 1 BSD -->
<g id="node5" class="node"><title>1 BSD</title>
<ellipse fill="#b2dfee" stroke="#b2dfee" cx="132.42" cy="-594" rx="37.1182" ry="18"/>
<text text-anchor="middle" x="132.42" y="-589.8" font-family="Times,serif" font-size="14.00">1 BSD</text>
</g>
<!-- 6th Edition&#45;&gt;1 BSD -->
<g id="edge4" class="edge"><title>6th Edition&#45;&gt;1 BSD</title>
<path fill="none" stroke="black" d="M406.538,-655.34C345.655,-641.939 236.238,-617.853 175.686,-604.524"/>
<polygon fill="black" stroke="black" points="176.205,-601.054 165.686,-602.323 174.7,-607.891 176.205,-601.054"/>
</g>
<!-- Mini Unix -->
<g id="node6" class="node"><title>Mini Unix</title>
<ellipse fill="#b2dfee" stroke="#b2dfee" cx="386.42" cy="-594" rx="51.5852" ry="18"/>
<text text-anchor="middle" x="386.42" y="-589.8" font-family="Times,serif" font-size="14.00">Mini Unix</text>
</g>
<!-- 6th Edition&#45;&gt;Mini Unix -->
<g id="edge5" class="edge"><title>6th Edition&#45;&gt;Mini Unix</title>
<path fill="none" stroke="black" d="M435.253,-648.411C427.203,-639.606 417.166,-628.628 408.289,-618.919"/>
<polygon fill="black" stroke="black" points="410.809,-616.489 401.479,-611.47 405.643,-621.212 410.809,-616.489"/>
</g>
<!-- Wollongong -->
<g id="node7" class="node"><title>Wollongong</title>
<ellipse fill="#b2dfee" stroke="#b2dfee" cx="515.42" cy="-594" rx="59.1372" ry="18"/>
<text text-anchor="middle" x="515.42" y="-589.8" font-family="Times,serif" font-size="14.00">Wollongong</text>
</g>
<!-- 6th Edition&#45;&gt;Wollongong -->
<g id="edge6" class="edge"><title>6th Edition&#45;&gt;Wollongong</title>
<path fill="none" stroke="black" d="M465.824,-648.411C474,-639.606 484.194,-628.628 493.21,-618.919"/>
<polygon fill="black" stroke="black" points="495.887,-621.179 500.127,-611.47 490.758,-616.416 495.887,-621.179"/>
</g>
<!-- Interdata -->
<g id="node8" class="node"><title>Interdata</title>
<ellipse fill="#b2dfee" stroke="#b2dfee" cx="271.42" cy="-594" rx="45.2015" ry="18"/>
<text text-anchor="middle" x="271.42" y="-589.8" font-family="Times,serif" font-size="14.00">Interdata</text>
</g>
<!-- 6th Edition&#45;&gt;Interdata -->
<g id="edge7" class="edge"><title>6th Edition&#45;&gt;Interdata</title>
<path fill="none" stroke="black" d="M416.752,-651.834C387.015,-640.205 343.588,-623.222 311.953,-610.851"/>
<polygon fill="black" stroke="black" points="313.13,-607.553 302.542,-607.171 310.581,-614.072 313.13,-607.553"/>
</g>
<!-- PWB 1.2 -->
<g id="node28" class="node"><title>PWB 1.2</title>
<ellipse fill="#b2dfee" stroke="#b2dfee" cx="716.42" cy="-594" rx="46.3913" ry="18"/>
<text text-anchor="middle" x="716.42" y="-589.8" font-family="Times,serif" font-size="14.00">PWB 1.2</text>
</g>
<!-- PWB 1.0&#45;&gt;PWB 1.2 -->
<g id="edge31" class="edge"><title>PWB 1.0&#45;&gt;PWB 1.2</title>
<path fill="none" stroke="black" d="M716.42,-647.697C716.42,-639.983 716.42,-630.712 716.42,-622.112"/>
<polygon fill="black" stroke="black" points="719.92,-622.104 716.42,-612.104 712.92,-622.104 719.92,-622.104"/>
</g>
<!-- USG 1.0 -->
<g id="node29" class="node"><title>USG 1.0</title>
<ellipse fill="#b2dfee" stroke="#b2dfee" cx="825.42" cy="-594" rx="44.6665" ry="18"/>
<text text-anchor="middle" x="825.42" y="-589.8" font-family="Times,serif" font-size="14.00">USG 1.0</text>
</g>
<!-- PWB 1.0&#45;&gt;USG 1.0 -->
<g id="edge32" class="edge"><title>PWB 1.0&#45;&gt;USG 1.0</title>
<path fill="none" stroke="black" d="M739.27,-650.326C755.112,-640.152 776.413,-626.472 793.871,-615.261"/>
<polygon fill="black" stroke="black" points="796.077,-618.004 802.6,-609.655 792.295,-612.114 796.077,-618.004"/>
</g>
<!-- 2 BSD -->
<g id="node19" class="node"><title>2 BSD</title>
<ellipse fill="#b2dfee" stroke="#b2dfee" cx="93.4204" cy="-234" rx="37.1182" ry="18"/>
<text text-anchor="middle" x="93.4204" y="-229.8" font-family="Times,serif" font-size="14.00">2 BSD</text>
</g>
<!-- 1 BSD&#45;&gt;2 BSD -->
<g id="edge19" class="edge"><title>1 BSD&#45;&gt;2 BSD</title>
<path fill="none" stroke="black" d="M127.284,-576.134C119.706,-549.719 106.42,-496.865 106.42,-451 106.42,-451 106.42,-451 106.42,-377 106.42,-336.829 101.197,-290.53 97.3724,-262.013"/>
<polygon fill="black" stroke="black" points="100.825,-261.43 95.9888,-252.003 93.8911,-262.388 100.825,-261.43"/>
</g>
<!-- Unix/TS 3.0 -->
<g id="node9" class="node"><title>Unix/TS 3.0</title>
<ellipse fill="#b2dfee" stroke="#b2dfee" cx="644.42" cy="-378" rx="58.5713" ry="18"/>
<text text-anchor="middle" x="644.42" y="-373.8" font-family="Times,serif" font-size="14.00">Unix/TS 3.0</text>
</g>
<!-- Interdata&#45;&gt;Unix/TS 3.0 -->
<g id="edge8" class="edge"><title>Interdata&#45;&gt;Unix/TS 3.0</title>
<path fill="none" stroke="black" d="M296.183,-578.793C360.626,-541.82 533.75,-442.495 608.851,-399.407"/>
<polygon fill="black" stroke="black" points="611.001,-402.209 617.933,-394.196 607.518,-396.137 611.001,-402.209"/>
</g>
<!-- PWB 2.0 -->
<g id="node10" class="node"><title>PWB 2.0</title>
<ellipse fill="#b2dfee" stroke="#b2dfee" cx="582.42" cy="-522" rx="46.3913" ry="18"/>
<text text-anchor="middle" x="582.42" y="-517.8" font-family="Times,serif" font-size="14.00">PWB 2.0</text>
</g>
<!-- Interdata&#45;&gt;PWB 2.0 -->
<g id="edge9" class="edge"><title>Interdata&#45;&gt;PWB 2.0</title>
<path fill="none" stroke="black" d="M304.94,-581.738C311.679,-579.675 318.742,-577.655 325.42,-576 411.814,-554.595 435.727,-560.154 522.42,-540 527.116,-538.908 531.994,-537.682 536.848,-536.401"/>
<polygon fill="black" stroke="black" points="537.981,-539.72 546.714,-533.72 536.146,-532.965 537.981,-539.72"/>
</g>
<!-- 7th Edition -->
<g id="node11" class="node"><title>7th Edition</title>
<ellipse fill="#b2dfee" stroke="#b2dfee" cx="271.42" cy="-522" rx="54.4553" ry="18"/>
<text text-anchor="middle" x="271.42" y="-517.8" font-family="Times,serif" font-size="14.00">7th Edition</text>
</g>
<!-- Interdata&#45;&gt;7th Edition -->
<g id="edge10" class="edge"><title>Interdata&#45;&gt;7th Edition</title>
<path fill="none" stroke="black" d="M271.42,-575.697C271.42,-567.983 271.42,-558.712 271.42,-550.112"/>
<polygon fill="black" stroke="black" points="274.92,-550.104 271.42,-540.104 267.92,-550.104 274.92,-550.104"/>
</g>
<!-- TS 4.0 -->
<g id="node38" class="node"><title>TS 4.0</title>
<ellipse fill="#b2dfee" stroke="#b2dfee" cx="703.42" cy="-234" rx="36.5805" ry="18"/>
<text text-anchor="middle" x="703.42" y="-229.8" font-family="Times,serif" font-size="14.00">TS 4.0</text>
</g>
<!-- Unix/TS 3.0&#45;&gt;TS 4.0 -->
<g id="edge44" class="edge"><title>Unix/TS 3.0&#45;&gt;TS 4.0</title>
<path fill="none" stroke="black" d="M651.537,-359.871C661.736,-335.325 680.594,-289.938 692.547,-261.17"/>
<polygon fill="black" stroke="black" points="695.857,-262.326 696.462,-251.748 689.392,-259.64 695.857,-262.326"/>
</g>
<!-- PWB 2.0&#45;&gt;Unix/TS 3.0 -->
<g id="edge42" class="edge"><title>PWB 2.0&#45;&gt;Unix/TS 3.0</title>
<path fill="none" stroke="black" d="M580.559,-503.688C579.312,-485.053 579.533,-454.995 590.42,-432 595.91,-420.406 605.069,-409.945 614.3,-401.439"/>
<polygon fill="black" stroke="black" points="616.727,-403.968 621.991,-394.773 612.142,-398.678 616.727,-403.968"/>
</g>
<!-- 8th Edition -->
<g id="node12" class="node"><title>8th Edition</title>
<ellipse fill="#b2dfee" stroke="#b2dfee" cx="482.42" cy="-162" rx="54.4553" ry="18"/>
<text text-anchor="middle" x="482.42" y="-157.8" font-family="Times,serif" font-size="14.00">8th Edition</text>
</g>
<!-- 7th Edition&#45;&gt;8th Edition -->
<g id="edge11" class="edge"><title>7th Edition&#45;&gt;8th Edition</title>
<path fill="none" stroke="black" d="M318.281,-512.808C365.335,-503.635 433.374,-487.473 451.42,-468 478.913,-438.333 470.42,-419.447 470.42,-379 470.42,-379 470.42,-379 470.42,-305 470.42,-264.853 475.242,-218.548 478.772,-190.022"/>
<polygon fill="black" stroke="black" points="482.256,-190.373 480.05,-180.01 475.312,-189.487 482.256,-190.373"/>
</g>
<!-- 32V -->
<g id="node13" class="node"><title>32V</title>
<ellipse fill="#b2dfee" stroke="#b2dfee" cx="414.42" cy="-450" rx="27.8306" ry="18"/>
<text text-anchor="middle" x="414.42" y="-445.8" font-family="Times,serif" font-size="14.00">32V</text>
</g>
<!-- 7th Edition&#45;&gt;32V -->
<g id="edge12" class="edge"><title>7th Edition&#45;&gt;32V</title>
<path fill="none" stroke="black" d="M300.704,-506.666C324.797,-494.871 358.855,-478.2 383.409,-466.18"/>
<polygon fill="black" stroke="black" points="385.197,-469.202 392.64,-461.662 382.119,-462.915 385.197,-469.202"/>
</g>
<!-- V7M -->
<g id="node14" class="node"><title>V7M</title>
<ellipse fill="#b2dfee" stroke="#b2dfee" cx="31.4204" cy="-378" rx="31.341" ry="18"/>
<text text-anchor="middle" x="31.4204" y="-373.8" font-family="Times,serif" font-size="14.00">V7M</text>
</g>
<!-- 7th Edition&#45;&gt;V7M -->
<g id="edge13" class="edge"><title>7th Edition&#45;&gt;V7M</title>
<path fill="none" stroke="black" d="M234.587,-508.653C208.537,-499.207 173.259,-484.945 144.42,-468 111.055,-448.395 76.6765,-419.912 54.7382,-400.484"/>
<polygon fill="black" stroke="black" points="57.0269,-397.835 47.2434,-393.769 52.3559,-403.049 57.0269,-397.835"/>
</g>
<!-- Ultrix&#45;11 -->
<g id="node15" class="node"><title>Ultrix&#45;11</title>
<ellipse fill="#b2dfee" stroke="#b2dfee" cx="121.42" cy="-90" rx="46.9477" ry="18"/>
<text text-anchor="middle" x="121.42" y="-85.8" font-family="Times,serif" font-size="14.00">Ultrix&#45;11</text>
</g>
<!-- 7th Edition&#45;&gt;Ultrix&#45;11 -->
<g id="edge14" class="edge"><title>7th Edition&#45;&gt;Ultrix&#45;11</title>
<path fill="none" stroke="black" d="M234.135,-508.593C214.391,-500.157 191.401,-487.02 177.42,-468 153.465,-435.41 158.42,-419.447 158.42,-379 158.42,-379 158.42,-379 158.42,-233 158.42,-191.705 143.587,-145.774 132.704,-117.634"/>
<polygon fill="black" stroke="black" points="135.862,-116.106 128.908,-108.113 129.36,-118.698 135.862,-116.106"/>
</g>
<!-- Xenix -->
<g id="node16" class="node"><title>Xenix</title>
<ellipse fill="#b2dfee" stroke="#b2dfee" cx="221.42" cy="-450" rx="34.7709" ry="18"/>
<text text-anchor="middle" x="221.42" y="-445.8" font-family="Times,serif" font-size="14.00">Xenix</text>
</g>
<!-- 7th Edition&#45;&gt;Xenix -->
<g id="edge15" class="edge"><title>7th Edition&#45;&gt;Xenix</title>
<path fill="none" stroke="black" d="M259.571,-504.411C253.469,-495.868 245.905,-485.278 239.126,-475.787"/>
<polygon fill="black" stroke="black" points="241.845,-473.573 233.185,-467.47 236.149,-477.642 241.845,-473.573"/>
</g>
<!-- UniPlus+ -->
<g id="node17" class="node"><title>UniPlus+</title>
<ellipse fill="#b2dfee" stroke="#b2dfee" cx="321.42" cy="-450" rx="47.7033" ry="18"/>
<text text-anchor="middle" x="321.42" y="-445.8" font-family="Times,serif" font-size="14.00">UniPlus+</text>
</g>
<!-- 7th Edition&#45;&gt;UniPlus+ -->
<g id="edge16" class="edge"><title>7th Edition&#45;&gt;UniPlus+</title>
<path fill="none" stroke="black" d="M283.27,-504.411C289.372,-495.868 296.936,-485.278 303.715,-475.787"/>
<polygon fill="black" stroke="black" points="306.692,-477.642 309.656,-467.47 300.996,-473.573 306.692,-477.642"/>
</g>
<!-- 9th Edition -->
<g id="node18" class="node"><title>9th Edition</title>
<ellipse fill="#b2dfee" stroke="#b2dfee" cx="565.42" cy="-90" rx="54.4553" ry="18"/>
<text text-anchor="middle" x="565.42" y="-85.8" font-family="Times,serif" font-size="14.00">9th Edition</text>
</g>
<!-- 8th Edition&#45;&gt;9th Edition -->
<g id="edge18" class="edge"><title>8th Edition&#45;&gt;9th Edition</title>
<path fill="none" stroke="black" d="M501.254,-145.116C512.319,-135.785 526.483,-123.838 538.688,-113.545"/>
<polygon fill="black" stroke="black" points="540.986,-116.186 546.374,-107.064 536.473,-110.835 540.986,-116.186"/>
</g>
<!-- 3 BSD -->
<g id="node22" class="node"><title>3 BSD</title>
<ellipse fill="#b2dfee" stroke="#b2dfee" cx="392.42" cy="-378" rx="37.1182" ry="18"/>
<text text-anchor="middle" x="392.42" y="-373.8" font-family="Times,serif" font-size="14.00">3 BSD</text>
</g>
<!-- 32V&#45;&gt;3 BSD -->
<g id="edge23" class="edge"><title>32V&#45;&gt;3 BSD</title>
<path fill="none" stroke="black" d="M409.095,-432.055C406.645,-424.261 403.679,-414.822 400.931,-406.079"/>
<polygon fill="black" stroke="black" points="404.187,-404.766 397.85,-396.275 397.509,-406.865 404.187,-404.766"/>
</g>
<!-- V7M&#45;&gt;Ultrix&#45;11 -->
<g id="edge17" class="edge"><title>V7M&#45;&gt;Ultrix&#45;11</title>
<path fill="none" stroke="black" d="M30.7254,-359.578C30.0523,-329.486 30.9702,-266.18 47.4204,-216 59.7348,-178.436 84.7127,-140.009 102.229,-115.859"/>
<polygon fill="black" stroke="black" points="105.178,-117.757 108.308,-107.635 99.5493,-113.596 105.178,-117.757"/>
</g>
<!-- 2.8 BSD -->
<g id="node20" class="node"><title>2.8 BSD</title>
<ellipse fill="#b2dfee" stroke="#b2dfee" cx="230.42" cy="-162" rx="44.1045" ry="18"/>
<text text-anchor="middle" x="230.42" y="-157.8" font-family="Times,serif" font-size="14.00">2.8 BSD</text>
</g>
<!-- 2 BSD&#45;&gt;2.8 BSD -->
<g id="edge20" class="edge"><title>2 BSD&#45;&gt;2.8 BSD</title>
<path fill="none" stroke="black" d="M117.913,-220.485C139.248,-209.584 170.46,-193.637 194.6,-181.302"/>
<polygon fill="black" stroke="black" points="196.487,-184.269 203.8,-176.602 193.302,-178.035 196.487,-184.269"/>
</g>
<!-- 2.8 BSD&#45;&gt;Ultrix&#45;11 -->
<g id="edge21" class="edge"><title>2.8 BSD&#45;&gt;Ultrix&#45;11</title>
<path fill="none" stroke="black" d="M207.836,-146.496C192.011,-136.334 170.645,-122.612 153.117,-111.356"/>
<polygon fill="black" stroke="black" points="154.657,-108.185 144.351,-105.726 150.874,-114.075 154.657,-108.185"/>
</g>
<!-- 2.9 BSD -->
<g id="node21" class="node"><title>2.9 BSD</title>
<ellipse fill="#b2dfee" stroke="#b2dfee" cx="230.42" cy="-90" rx="44.1045" ry="18"/>
<text text-anchor="middle" x="230.42" y="-85.8" font-family="Times,serif" font-size="14.00">2.9 BSD</text>
</g>
<!-- 2.8 BSD&#45;&gt;2.9 BSD -->
<g id="edge22" class="edge"><title>2.8 BSD&#45;&gt;2.9 BSD</title>
<path fill="none" stroke="black" d="M230.42,-143.697C230.42,-135.983 230.42,-126.712 230.42,-118.112"/>
<polygon fill="black" stroke="black" points="233.92,-118.104 230.42,-108.104 226.92,-118.104 233.92,-118.104"/>
</g>
<!-- 4 BSD -->
<g id="node23" class="node"><title>4 BSD</title>
<ellipse fill="#b2dfee" stroke="#b2dfee" cx="389.42" cy="-306" rx="37.1182" ry="18"/>
<text text-anchor="middle" x="389.42" y="-301.8" font-family="Times,serif" font-size="14.00">4 BSD</text>
</g>
<!-- 3 BSD&#45;&gt;4 BSD -->
<g id="edge24" class="edge"><title>3 BSD&#45;&gt;4 BSD</title>
<path fill="none" stroke="black" d="M391.679,-359.697C391.348,-351.983 390.951,-342.712 390.582,-334.112"/>
<polygon fill="black" stroke="black" points="394.078,-333.945 390.153,-324.104 387.085,-334.245 394.078,-333.945"/>
</g>
<!-- 4.1 BSD -->
<g id="node24" class="node"><title>4.1 BSD</title>
<ellipse fill="#b2dfee" stroke="#b2dfee" cx="387.42" cy="-234" rx="44.1045" ry="18"/>
<text text-anchor="middle" x="387.42" y="-229.8" font-family="Times,serif" font-size="14.00">4.1 BSD</text>
</g>
<!-- 4 BSD&#45;&gt;4.1 BSD -->
<g id="edge25" class="edge"><title>4 BSD&#45;&gt;4.1 BSD</title>
<path fill="none" stroke="black" d="M388.926,-287.697C388.706,-279.983 388.441,-270.712 388.195,-262.112"/>
<polygon fill="black" stroke="black" points="391.693,-262 387.909,-252.104 384.696,-262.2 391.693,-262"/>
</g>
<!-- 4.1 BSD&#45;&gt;8th Edition -->
<g id="edge28" class="edge"><title>4.1 BSD&#45;&gt;8th Edition</title>
<path fill="none" stroke="black" d="M408.034,-217.811C421.172,-208.13 438.402,-195.435 452.97,-184.7"/>
<polygon fill="black" stroke="black" points="455.215,-187.394 461.189,-178.644 451.062,-181.758 455.215,-187.394"/>
</g>
<!-- 4.1 BSD&#45;&gt;2.8 BSD -->
<g id="edge27" class="edge"><title>4.1 BSD&#45;&gt;2.8 BSD</title>
<path fill="none" stroke="black" d="M358.624,-220.161C333.284,-208.863 296.205,-192.331 268.434,-179.949"/>
<polygon fill="black" stroke="black" points="269.593,-176.633 259.034,-175.758 266.742,-183.027 269.593,-176.633"/>
</g>
<!-- 4.2 BSD -->
<g id="node25" class="node"><title>4.2 BSD</title>
<ellipse fill="#b2dfee" stroke="#b2dfee" cx="365.42" cy="-162" rx="44.1045" ry="18"/>
<text text-anchor="middle" x="365.42" y="-157.8" font-family="Times,serif" font-size="14.00">4.2 BSD</text>
</g>
<!-- 4.1 BSD&#45;&gt;4.2 BSD -->
<g id="edge26" class="edge"><title>4.1 BSD&#45;&gt;4.2 BSD</title>
<path fill="none" stroke="black" d="M382.095,-216.055C379.645,-208.261 376.679,-198.822 373.931,-190.079"/>
<polygon fill="black" stroke="black" points="377.187,-188.766 370.85,-180.275 370.509,-190.865 377.187,-188.766"/>
</g>
<!-- 4.3 BSD -->
<g id="node26" class="node"><title>4.3 BSD</title>
<ellipse fill="#b2dfee" stroke="#b2dfee" cx="448.42" cy="-90" rx="44.1045" ry="18"/>
<text text-anchor="middle" x="448.42" y="-85.8" font-family="Times,serif" font-size="14.00">4.3 BSD</text>
</g>
<!-- 4.2 BSD&#45;&gt;4.3 BSD -->
<g id="edge29" class="edge"><title>4.2 BSD&#45;&gt;4.3 BSD</title>
<path fill="none" stroke="black" d="M383.841,-145.465C395.124,-135.949 409.744,-123.619 422.22,-113.097"/>
<polygon fill="black" stroke="black" points="424.664,-115.614 430.051,-106.492 420.151,-110.263 424.664,-115.614"/>
</g>
<!-- Ultrix&#45;32 -->
<g id="node27" class="node"><title>Ultrix&#45;32</title>
<ellipse fill="#b2dfee" stroke="#b2dfee" cx="339.42" cy="-90" rx="46.9477" ry="18"/>
<text text-anchor="middle" x="339.42" y="-85.8" font-family="Times,serif" font-size="14.00">Ultrix&#45;32</text>
</g>
<!-- 4.2 BSD&#45;&gt;Ultrix&#45;32 -->
<g id="edge30" class="edge"><title>4.2 BSD&#45;&gt;Ultrix&#45;32</title>
<path fill="none" stroke="black" d="M359.127,-144.055C356.2,-136.176 352.649,-126.617 349.372,-117.794"/>
<polygon fill="black" stroke="black" points="352.6,-116.431 345.837,-108.275 346.038,-118.868 352.6,-116.431"/>
</g>
<!-- PWB 1.2&#45;&gt;PWB 2.0 -->
<g id="edge33" class="edge"><title>PWB 1.2&#45;&gt;PWB 2.0</title>
<path fill="none" stroke="black" d="M689.946,-579.17C669.433,-568.454 640.801,-553.498 618.241,-541.712"/>
<polygon fill="black" stroke="black" points="619.782,-538.569 609.298,-537.041 616.541,-544.773 619.782,-538.569"/>
</g>
<!-- CB Unix 1 -->
<g id="node30" class="node"><title>CB Unix 1</title>
<ellipse fill="#b2dfee" stroke="#b2dfee" cx="878.42" cy="-522" rx="52.7719" ry="18"/>
<text text-anchor="middle" x="878.42" y="-517.8" font-family="Times,serif" font-size="14.00">CB Unix 1</text>
</g>
<!-- USG 1.0&#45;&gt;CB Unix 1 -->
<g id="edge34" class="edge"><title>USG 1.0&#45;&gt;CB Unix 1</title>
<path fill="none" stroke="black" d="M837.981,-576.411C844.355,-567.992 852.235,-557.585 859.34,-548.201"/>
<polygon fill="black" stroke="black" points="862.336,-550.042 865.582,-539.956 856.755,-545.816 862.336,-550.042"/>
</g>
<!-- USG 2.0 -->
<g id="node31" class="node"><title>USG 2.0</title>
<ellipse fill="#b2dfee" stroke="#b2dfee" cx="733.42" cy="-522" rx="44.6665" ry="18"/>
<text text-anchor="middle" x="733.42" y="-517.8" font-family="Times,serif" font-size="14.00">USG 2.0</text>
</g>
<!-- USG 1.0&#45;&gt;USG 2.0 -->
<g id="edge35" class="edge"><title>USG 1.0&#45;&gt;USG 2.0</title>
<path fill="none" stroke="black" d="M805.458,-577.811C792.558,-567.996 775.585,-555.082 761.354,-544.254"/>
<polygon fill="black" stroke="black" points="763.422,-541.429 753.344,-538.159 759.183,-547 763.422,-541.429"/>
</g>
<!-- CB Unix 2 -->
<g id="node32" class="node"><title>CB Unix 2</title>
<ellipse fill="#b2dfee" stroke="#b2dfee" cx="896.42" cy="-450" rx="52.7719" ry="18"/>
<text text-anchor="middle" x="896.42" y="-445.8" font-family="Times,serif" font-size="14.00">CB Unix 2</text>
</g>
<!-- CB Unix 1&#45;&gt;CB Unix 2 -->
<g id="edge36" class="edge"><title>CB Unix 1&#45;&gt;CB Unix 2</title>
<path fill="none" stroke="black" d="M882.778,-504.055C884.782,-496.261 887.209,-486.822 889.457,-478.079"/>
<polygon fill="black" stroke="black" points="892.877,-478.832 891.978,-468.275 886.098,-477.089 892.877,-478.832"/>
</g>
<!-- USG 3.0 -->
<g id="node36" class="node"><title>USG 3.0</title>
<ellipse fill="#b2dfee" stroke="#b2dfee" cx="644.42" cy="-450" rx="44.6665" ry="18"/>
<text text-anchor="middle" x="644.42" y="-445.8" font-family="Times,serif" font-size="14.00">USG 3.0</text>
</g>
<!-- USG 2.0&#45;&gt;USG 3.0 -->
<g id="edge40" class="edge"><title>USG 2.0&#45;&gt;USG 3.0</title>
<path fill="none" stroke="black" d="M713.668,-505.465C701.37,-495.792 685.373,-483.21 671.854,-472.577"/>
<polygon fill="black" stroke="black" points="673.835,-469.682 663.811,-466.251 669.507,-475.184 673.835,-469.682"/>
</g>
<!-- CB Unix 3 -->
<g id="node33" class="node"><title>CB Unix 3</title>
<ellipse fill="#b2dfee" stroke="#b2dfee" cx="835.42" cy="-378" rx="52.7719" ry="18"/>
<text text-anchor="middle" x="835.42" y="-373.8" font-family="Times,serif" font-size="14.00">CB Unix 3</text>
</g>
<!-- CB Unix 2&#45;&gt;CB Unix 3 -->
<g id="edge37" class="edge"><title>CB Unix 2&#45;&gt;CB Unix 3</title>
<path fill="none" stroke="black" d="M881.964,-432.411C874.367,-423.693 864.914,-412.845 856.516,-403.208"/>
<polygon fill="black" stroke="black" points="858.981,-400.71 849.773,-395.47 853.704,-405.309 858.981,-400.71"/>
</g>
<!-- Unix/TS++ -->
<g id="node34" class="node"><title>Unix/TS++</title>
<ellipse fill="#b2dfee" stroke="#b2dfee" cx="786.42" cy="-306" rx="55.3826" ry="18"/>
<text text-anchor="middle" x="786.42" y="-301.8" font-family="Times,serif" font-size="14.00">Unix/TS++</text>
</g>
<!-- CB Unix 3&#45;&gt;Unix/TS++ -->
<g id="edge38" class="edge"><title>CB Unix 3&#45;&gt;Unix/TS++</title>
<path fill="none" stroke="black" d="M823.808,-360.411C817.914,-351.992 810.63,-341.585 804.061,-332.201"/>
<polygon fill="black" stroke="black" points="806.892,-330.141 798.29,-323.956 801.157,-334.156 806.892,-330.141"/>
</g>
<!-- PDP&#45;11 Sys V -->
<g id="node35" class="node"><title>PDP&#45;11 Sys V</title>
<ellipse fill="#b2dfee" stroke="#b2dfee" cx="927.42" cy="-306" rx="67.237" ry="18"/>
<text text-anchor="middle" x="927.42" y="-301.8" font-family="Times,serif" font-size="14.00">PDP&#45;11 Sys V</text>
</g>
<!-- CB Unix 3&#45;&gt;PDP&#45;11 Sys V -->
<g id="edge39" class="edge"><title>CB Unix 3&#45;&gt;PDP&#45;11 Sys V</title>
<path fill="none" stroke="black" d="M856.297,-361.116C868.59,-351.763 884.336,-339.782 897.886,-329.472"/>
<polygon fill="black" stroke="black" points="900.149,-332.148 905.988,-323.307 895.911,-326.577 900.149,-332.148"/>
</g>
<!-- CB Unix 3&#45;&gt;TS 4.0 -->
<g id="edge46" class="edge"><title>CB Unix 3&#45;&gt;TS 4.0</title>
<path fill="none" stroke="black" d="M792.978,-367.151C768.807,-359.38 739.941,-346.057 722.42,-324 708.637,-306.649 704.254,-281.596 703.108,-262.488"/>
<polygon fill="black" stroke="black" points="706.599,-262.176 702.762,-252.3 699.603,-262.413 706.599,-262.176"/>
</g>
<!-- Unix/TS++&#45;&gt;TS 4.0 -->
<g id="edge45" class="edge"><title>Unix/TS++&#45;&gt;TS 4.0</title>
<path fill="none" stroke="black" d="M767.17,-288.765C755.778,-279.157 741.209,-266.87 728.876,-256.469"/>
<polygon fill="black" stroke="black" points="731.05,-253.724 721.15,-249.952 726.537,-259.075 731.05,-253.724"/>
</g>
<!-- USG 3.0&#45;&gt;Unix/TS 3.0 -->
<g id="edge41" class="edge"><title>USG 3.0&#45;&gt;Unix/TS 3.0</title>
<path fill="none" stroke="black" d="M644.42,-431.697C644.42,-423.983 644.42,-414.712 644.42,-406.112"/>
<polygon fill="black" stroke="black" points="647.92,-406.104 644.42,-396.104 640.92,-406.104 647.92,-406.104"/>
</g>
<!-- Unix/TS 1.0 -->
<g id="node37" class="node"><title>Unix/TS 1.0</title>
<ellipse fill="#b2dfee" stroke="#b2dfee" cx="766.42" cy="-450" rx="58.5713" ry="18"/>
<text text-anchor="middle" x="766.42" y="-445.8" font-family="Times,serif" font-size="14.00">Unix/TS 1.0</text>
</g>
<!-- Unix/TS 1.0&#45;&gt;Unix/TS 3.0 -->
<g id="edge43" class="edge"><title>Unix/TS 1.0&#45;&gt;Unix/TS 3.0</title>
<path fill="none" stroke="black" d="M739.948,-433.811C722.282,-423.675 698.856,-410.234 679.623,-399.198"/>
<polygon fill="black" stroke="black" points="681.256,-396.1 670.841,-394.159 677.773,-402.172 681.256,-396.1"/>
</g>
<!-- System V.0 -->
<g id="node39" class="node"><title>System V.0</title>
<ellipse fill="#b2dfee" stroke="#b2dfee" cx="703.42" cy="-162" rx="56.1995" ry="18"/>
<text text-anchor="middle" x="703.42" y="-157.8" font-family="Times,serif" font-size="14.00">System V.0</text>
</g>
<!-- TS 4.0&#45;&gt;System V.0 -->
<g id="edge47" class="edge"><title>TS 4.0&#45;&gt;System V.0</title>
<path fill="none" stroke="black" d="M703.42,-215.697C703.42,-207.983 703.42,-198.712 703.42,-190.112"/>
<polygon fill="black" stroke="black" points="706.92,-190.104 703.42,-180.104 699.92,-190.104 706.92,-190.104"/>
</g>
<!-- System V.2 -->
<g id="node40" class="node"><title>System V.2</title>
<ellipse fill="#b2dfee" stroke="#b2dfee" cx="703.42" cy="-90" rx="56.1995" ry="18"/>
<text text-anchor="middle" x="703.42" y="-85.8" font-family="Times,serif" font-size="14.00">System V.2</text>
</g>
<!-- System V.0&#45;&gt;System V.2 -->
<g id="edge48" class="edge"><title>System V.0&#45;&gt;System V.2</title>
<path fill="none" stroke="black" d="M703.42,-143.697C703.42,-135.983 703.42,-126.712 703.42,-118.112"/>
<polygon fill="black" stroke="black" points="706.92,-118.104 703.42,-108.104 699.92,-118.104 706.92,-118.104"/>
</g>
<!-- System V.3 -->
<g id="node41" class="node"><title>System V.3</title>
<ellipse fill="#b2dfee" stroke="#b2dfee" cx="703.42" cy="-18" rx="56.1995" ry="18"/>
<text text-anchor="middle" x="703.42" y="-13.8" font-family="Times,serif" font-size="14.00">System V.3</text>
</g>
<!-- System V.2&#45;&gt;System V.3 -->
<g id="edge49" class="edge"><title>System V.2&#45;&gt;System V.3</title>
<path fill="none" stroke="black" d="M703.42,-71.6966C703.42,-63.9827 703.42,-54.7125 703.42,-46.1124"/>
<polygon fill="black" stroke="black" points="706.92,-46.1043 703.42,-36.1043 699.92,-46.1044 706.92,-46.1043"/>
</g>
</g>
</svg>
