<?xml version="1.0" encoding="UTF-8" standalone="no"?>
<!DOCTYPE svg PUBLIC "-//W3C//DTD SVG 1.1//EN"
 "http://www.w3.org/Graphics/SVG/1.1/DTD/svg11.dtd">
<!-- Generated by graphviz version 2.38.0 (20140413.2041)
 -->
<!-- Title: sample Pages: 1 -->
<svg width="615pt" height="1233pt"
 viewBox="0.00 0.00 614.97 1232.80" xmlns="http://www.w3.org/2000/svg" xmlns:xlink="http://www.w3.org/1999/xlink">
<g id="graph0" class="graph" transform="scale(1 1) rotate(0) translate(4 1228.8)">
<title>sample</title>
<polygon fill="white" stroke="none" points="-4,4 -4,-1228.8 610.974,-1228.8 610.974,4 -4,4"/>
<!-- feature_a -->
<g id="node1" class="node"><title>feature_a</title>
<ellipse fill="none" stroke="black" cx="39.1553" cy="-396.4" rx="38.9521" ry="18"/>
<text text-anchor="middle" x="39.1553" y="-392.8" font-family="Times,serif" font-size="12.00">feature_a</text>
</g>
<!-- feature_b -->
<g id="node2" class="node"><title>feature_b</title>
<ellipse fill="none" stroke="black" cx="39.1553" cy="-555.8" rx="39.3113" ry="18"/>
<text text-anchor="middle" x="39.1553" y="-552.2" font-family="Times,serif" font-size="12.00">feature_b</text>
</g>
<!-- feature_a&#45;&gt;feature_b -->
<g id="edge1" class="edge"><title>feature_a&#45;&gt;feature_b</title>
<path fill="none" stroke="darkorange" d="M39.1553,-414.544C39.1553,-441.746 39.1553,-495.034 39.1553,-527.524"/>
<polygon fill="darkorange" stroke="darkorange" points="35.6554,-527.677 39.1553,-537.677 42.6554,-527.677 35.6554,-527.677"/>
<text text-anchor="middle" x="72.9773" y="-465.8" font-family="Times,serif" font-size="12.00">TBD Features</text>
</g>
<!-- feature_c -->
<g id="node3" class="node"><title>feature_c</title>
<ellipse fill="none" stroke="black" cx="39.1553" cy="-642.2" rx="38.9521" ry="18"/>
<text text-anchor="middle" x="39.1553" y="-638.6" font-family="Times,serif" font-size="12.00">feature_c</text>
</g>
<!-- feature_b&#45;&gt;feature_c -->
<g id="edge2" class="edge"><title>feature_b&#45;&gt;feature_c</title>
<path fill="none" stroke="darkorange" d="M39.1553,-573.88C39.1553,-585.319 39.1553,-600.632 39.1553,-613.762"/>
<polygon fill="darkorange" stroke="darkorange" points="35.6554,-614.146 39.1553,-624.146 42.6554,-614.146 35.6554,-614.146"/>
<text text-anchor="middle" x="72.9773" y="-595.4" font-family="Times,serif" font-size="12.00">TBD Features</text>
</g>
<!-- feature_d -->
<g id="node4" class="node"><title>feature_d</title>
<ellipse fill="none" stroke="black" cx="39.1553" cy="-728.6" rx="39.3113" ry="18"/>
<text text-anchor="middle" x="39.1553" y="-725" font-family="Times,serif" font-size="12.00">feature_d</text>
</g>
<!-- feature_c&#45;&gt;feature_d -->
<g id="edge3" class="edge"><title>feature_c&#45;&gt;feature_d</title>
<path fill="none" stroke="darkorange" d="M39.1553,-660.28C39.1553,-671.719 39.1553,-687.032 39.1553,-700.162"/>
<polygon fill="darkorange" stroke="darkorange" points="35.6554,-700.546 39.1553,-710.546 42.6554,-700.546 35.6554,-700.546"/>
<text text-anchor="middle" x="72.9773" y="-681.8" font-family="Times,serif" font-size="12.00">TBD Features</text>
</g>
<!-- feature_e -->
<g id="node5" class="node"><title>feature_e</title>
<ellipse fill="none" stroke="black" cx="39.1553" cy="-815" rx="38.9521" ry="18"/>
<text text-anchor="middle" x="39.1553" y="-811.4" font-family="Times,serif" font-size="12.00">feature_e</text>
</g>
<!-- feature_d&#45;&gt;feature_e -->
<g id="edge4" class="edge"><title>feature_d&#45;&gt;feature_e</title>
<path fill="none" stroke="darkorange" d="M39.1553,-746.68C39.1553,-758.119 39.1553,-773.432 39.1553,-786.562"/>
<polygon fill="darkorange" stroke="darkorange" points="35.6554,-786.946 39.1553,-796.946 42.6554,-786.946 35.6554,-786.946"/>
<text text-anchor="middle" x="72.9773" y="-768.2" font-family="Times,serif" font-size="12.00">TBD Features</text>
</g>
<!-- K -->
<g id="node19" class="node"><title>K</title>
<ellipse fill="none" stroke="black" cx="152.155" cy="-901.4" rx="27" ry="18"/>
<text text-anchor="middle" x="152.155" y="-897.8" font-family="Times,serif" font-size="12.00">K</text>
</g>
<!-- feature_e&#45;&gt;K -->
<g id="edge31" class="edge"><title>feature_e&#45;&gt;K</title>
<path fill="none" stroke="darkorange" d="M58.8384,-830.701C77.6502,-844.752 106.107,-866.006 126.648,-881.349"/>
<polygon fill="darkorange" stroke="darkorange" points="124.81,-884.344 134.916,-887.524 128.999,-878.736 124.81,-884.344"/>
</g>
<!-- customize_a -->
<g id="node6" class="node"><title>customize_a</title>
<ellipse fill="none" stroke="black" cx="253.155" cy="-555.8" rx="48.5548" ry="18"/>
<text text-anchor="middle" x="253.155" y="-552.2" font-family="Times,serif" font-size="12.00">customize_a</text>
</g>
<!-- customize_b -->
<g id="node7" class="node"><title>customize_b</title>
<ellipse fill="none" stroke="black" cx="253.155" cy="-642.2" rx="48.9147" ry="18"/>
<text text-anchor="middle" x="253.155" y="-638.6" font-family="Times,serif" font-size="12.00">customize_b</text>
</g>
<!-- customize_a&#45;&gt;customize_b -->
<g id="edge5" class="edge"><title>customize_a&#45;&gt;customize_b</title>
<path fill="none" stroke="deepskyblue" d="M253.155,-573.88C253.155,-585.319 253.155,-600.632 253.155,-613.762"/>
<polygon fill="deepskyblue" stroke="deepskyblue" points="249.655,-614.146 253.155,-624.146 256.655,-614.146 249.655,-614.146"/>
<text text-anchor="middle" x="303.314" y="-595.4" font-family="Times,serif" font-size="12.00">individual customize</text>
</g>
<!-- customize_c -->
<g id="node8" class="node"><title>customize_c</title>
<ellipse fill="none" stroke="black" cx="253.155" cy="-815" rx="48.5548" ry="18"/>
<text text-anchor="middle" x="253.155" y="-811.4" font-family="Times,serif" font-size="12.00">customize_c</text>
</g>
<!-- customize_b&#45;&gt;customize_c -->
<g id="edge6" class="edge"><title>customize_b&#45;&gt;customize_c</title>
<path fill="none" stroke="deepskyblue" d="M253.155,-660.201C253.155,-689.795 253.155,-751.011 253.155,-786.641"/>
<polygon fill="deepskyblue" stroke="deepskyblue" points="249.655,-786.814 253.155,-796.814 256.655,-786.814 249.655,-786.814"/>
<text text-anchor="middle" x="303.314" y="-725" font-family="Times,serif" font-size="12.00">individual customize</text>
</g>
<!-- L -->
<g id="node20" class="node"><title>L</title>
<ellipse fill="none" stroke="black" cx="152.155" cy="-974.4" rx="27" ry="18"/>
<text text-anchor="middle" x="152.155" y="-970.8" font-family="Times,serif" font-size="12.00">L</text>
</g>
<!-- customize_c&#45;&gt;L -->
<g id="edge34" class="edge"><title>customize_c&#45;&gt;L</title>
<path fill="none" stroke="deepskyblue" d="M242.71,-832.923C229.982,-853.473 207.747,-889.142 188.155,-919.4 181.844,-929.148 174.78,-939.799 168.591,-949.046"/>
<polygon fill="deepskyblue" stroke="deepskyblue" points="165.647,-947.153 162.98,-957.407 171.459,-951.054 165.647,-947.153"/>
</g>
<!-- release_2_3 -->
<g id="node28" class="node"><title>release_2_3</title>
<ellipse fill="none" stroke="black" cx="560.155" cy="-901.4" rx="46.6387" ry="18"/>
<text text-anchor="middle" x="560.155" y="-897.8" font-family="Times,serif" font-size="12.00">release_2_3</text>
</g>
<!-- customize_c&#45;&gt;release_2_3 -->
<g id="edge33" class="edge"><title>customize_c&#45;&gt;release_2_3</title>
<path fill="none" stroke="deepskyblue" d="M291.107,-826.434C347.335,-841.892 452.659,-870.847 513.513,-887.577"/>
<polygon fill="deepskyblue" stroke="deepskyblue" points="512.677,-890.977 523.247,-890.253 514.532,-884.227 512.677,-890.977"/>
<text text-anchor="middle" x="468.645" y="-854.6" font-family="Times,serif" font-size="12.00">Jenkins merge</text>
</g>
<!-- A -->
<g id="node9" class="node"><title>A</title>
<ellipse fill="none" stroke="black" cx="152.155" cy="-18" rx="27" ry="18"/>
<text text-anchor="middle" x="152.155" y="-14.4" font-family="Times,serif" font-size="12.00">A</text>
</g>
<!-- B -->
<g id="node10" class="node"><title>B</title>
<ellipse fill="none" stroke="black" cx="152.155" cy="-91" rx="27" ry="18"/>
<text text-anchor="middle" x="152.155" y="-87.4" font-family="Times,serif" font-size="12.00">B</text>
</g>
<!-- A&#45;&gt;B -->
<g id="edge7" class="edge"><title>A&#45;&gt;B</title>
<path fill="none" stroke="blue" d="M152.155,-36.1871C152.155,-44.2105 152.155,-53.9525 152.155,-62.9309"/>
<polygon fill="blue" stroke="blue" points="148.655,-62.9711 152.155,-72.9712 155.655,-62.9712 148.655,-62.9711"/>
</g>
<!-- C -->
<g id="node11" class="node"><title>C</title>
<ellipse fill="none" stroke="black" cx="152.155" cy="-164" rx="27" ry="18"/>
<text text-anchor="middle" x="152.155" y="-160.4" font-family="Times,serif" font-size="12.00">C</text>
</g>
<!-- B&#45;&gt;C -->
<g id="edge8" class="edge"><title>B&#45;&gt;C</title>
<path fill="none" stroke="blue" d="M152.155,-109.187C152.155,-117.211 152.155,-126.953 152.155,-135.931"/>
<polygon fill="blue" stroke="blue" points="148.655,-135.971 152.155,-145.971 155.655,-135.971 148.655,-135.971"/>
</g>
<!-- D -->
<g id="node12" class="node"><title>D</title>
<ellipse fill="none" stroke="black" cx="152.155" cy="-237" rx="27" ry="18"/>
<text text-anchor="middle" x="152.155" y="-233.4" font-family="Times,serif" font-size="12.00">D</text>
</g>
<!-- C&#45;&gt;D -->
<g id="edge9" class="edge"><title>C&#45;&gt;D</title>
<path fill="none" stroke="blue" d="M152.155,-182.187C152.155,-190.211 152.155,-199.953 152.155,-208.931"/>
<polygon fill="blue" stroke="blue" points="148.655,-208.971 152.155,-218.971 155.655,-208.971 148.655,-208.971"/>
</g>
<!-- release_1_0 -->
<g id="node24" class="node"><title>release_1_0</title>
<ellipse fill="none" stroke="black" cx="560.155" cy="-310" rx="46.6387" ry="18"/>
<text text-anchor="middle" x="560.155" y="-306.4" font-family="Times,serif" font-size="12.00">release_1_0</text>
</g>
<!-- C&#45;&gt;release_1_0 -->
<g id="edge27" class="edge"><title>C&#45;&gt;release_1_0</title>
<path fill="none" stroke="blue" d="M175.557,-173.259C241.847,-196.656 431.629,-263.638 517.289,-293.871"/>
<polygon fill="blue" stroke="blue" points="516.365,-297.256 526.96,-297.284 518.695,-290.655 516.365,-297.256"/>
<text text-anchor="middle" x="438.645" y="-233.4" font-family="Times,serif" font-size="12.00">Jenkins merge</text>
</g>
<!-- E -->
<g id="node13" class="node"><title>E</title>
<ellipse fill="none" stroke="black" cx="152.155" cy="-310" rx="27" ry="18"/>
<text text-anchor="middle" x="152.155" y="-306.4" font-family="Times,serif" font-size="12.00">E</text>
</g>
<!-- D&#45;&gt;E -->
<g id="edge10" class="edge"><title>D&#45;&gt;E</title>
<path fill="none" stroke="blue" d="M152.155,-255.187C152.155,-263.211 152.155,-272.953 152.155,-281.931"/>
<polygon fill="blue" stroke="blue" points="148.655,-281.971 152.155,-291.971 155.655,-281.971 148.655,-281.971"/>
</g>
<!-- E&#45;&gt;feature_a -->
<g id="edge30" class="edge"><title>E&#45;&gt;feature_a</title>
<path fill="none" stroke="darkorange" d="M134.499,-324.187C116.496,-337.634 88.2934,-358.699 67.2246,-374.435"/>
<polygon fill="darkorange" stroke="darkorange" points="64.8852,-371.814 58.9678,-380.602 69.0741,-377.422 64.8852,-371.814"/>
</g>
<!-- F -->
<g id="node14" class="node"><title>F</title>
<ellipse fill="none" stroke="black" cx="152.155" cy="-469.4" rx="27" ry="18"/>
<text text-anchor="middle" x="152.155" y="-465.8" font-family="Times,serif" font-size="12.00">F</text>
</g>
<!-- E&#45;&gt;F -->
<g id="edge11" class="edge"><title>E&#45;&gt;F</title>
<path fill="none" stroke="blue" d="M152.155,-328.144C152.155,-355.346 152.155,-408.634 152.155,-441.124"/>
<polygon fill="blue" stroke="blue" points="148.655,-441.277 152.155,-451.277 155.655,-441.277 148.655,-441.277"/>
</g>
<!-- release_2_0 -->
<g id="node25" class="node"><title>release_2_0</title>
<ellipse fill="none" stroke="black" cx="560.155" cy="-396.4" rx="46.6387" ry="18"/>
<text text-anchor="middle" x="560.155" y="-392.8" font-family="Times,serif" font-size="12.00">release_2_0</text>
</g>
<!-- E&#45;&gt;release_2_0 -->
<g id="edge28" class="edge"><title>E&#45;&gt;release_2_0</title>
<path fill="none" stroke="blue" d="M177.678,-316.28C243.879,-329.974 422.052,-366.832 509.852,-384.994"/>
<polygon fill="blue" stroke="blue" points="509.342,-388.463 519.844,-387.061 510.76,-381.608 509.342,-388.463"/>
<text text-anchor="middle" x="427.645" y="-349.6" font-family="Times,serif" font-size="12.00">Jenkins merge</text>
</g>
<!-- F&#45;&gt;customize_a -->
<g id="edge32" class="edge"><title>F&#45;&gt;customize_a</title>
<path fill="none" stroke="deepskyblue" d="M168.383,-483.96C183.954,-496.972 207.755,-516.861 226.178,-532.257"/>
<polygon fill="deepskyblue" stroke="deepskyblue" points="224.298,-535.246 234.215,-538.973 228.786,-529.875 224.298,-535.246"/>
</g>
<!-- G -->
<g id="node15" class="node"><title>G</title>
<ellipse fill="none" stroke="black" cx="152.155" cy="-555.8" rx="27" ry="18"/>
<text text-anchor="middle" x="152.155" y="-552.2" font-family="Times,serif" font-size="12.00">G</text>
</g>
<!-- F&#45;&gt;G -->
<g id="edge12" class="edge"><title>F&#45;&gt;G</title>
<path fill="none" stroke="blue" d="M152.155,-487.48C152.155,-498.919 152.155,-514.232 152.155,-527.362"/>
<polygon fill="blue" stroke="blue" points="148.655,-527.746 152.155,-537.746 155.655,-527.746 148.655,-527.746"/>
</g>
<!-- H -->
<g id="node16" class="node"><title>H</title>
<ellipse fill="none" stroke="black" cx="152.155" cy="-642.2" rx="27" ry="18"/>
<text text-anchor="middle" x="152.155" y="-638.6" font-family="Times,serif" font-size="12.00">H</text>
</g>
<!-- G&#45;&gt;H -->
<g id="edge13" class="edge"><title>G&#45;&gt;H</title>
<path fill="none" stroke="blue" d="M152.155,-573.88C152.155,-585.319 152.155,-600.632 152.155,-613.762"/>
<polygon fill="blue" stroke="blue" points="148.655,-614.146 152.155,-624.146 155.655,-614.146 148.655,-614.146"/>
</g>
<!-- I -->
<g id="node17" class="node"><title>I</title>
<ellipse fill="none" stroke="black" cx="152.155" cy="-728.6" rx="27" ry="18"/>
<text text-anchor="middle" x="152.155" y="-725" font-family="Times,serif" font-size="12.00">I</text>
</g>
<!-- H&#45;&gt;I -->
<g id="edge14" class="edge"><title>H&#45;&gt;I</title>
<path fill="none" stroke="blue" d="M152.155,-660.28C152.155,-671.719 152.155,-687.032 152.155,-700.162"/>
<polygon fill="blue" stroke="blue" points="148.655,-700.546 152.155,-710.546 155.655,-700.546 148.655,-700.546"/>
</g>
<!-- J -->
<g id="node18" class="node"><title>J</title>
<ellipse fill="none" stroke="black" cx="152.155" cy="-815" rx="27" ry="18"/>
<text text-anchor="middle" x="152.155" y="-811.4" font-family="Times,serif" font-size="12.00">J</text>
</g>
<!-- I&#45;&gt;J -->
<g id="edge15" class="edge"><title>I&#45;&gt;J</title>
<path fill="none" stroke="blue" d="M152.155,-746.68C152.155,-758.119 152.155,-773.432 152.155,-786.562"/>
<polygon fill="blue" stroke="blue" points="148.655,-786.946 152.155,-796.946 155.655,-786.946 148.655,-786.946"/>
</g>
<!-- J&#45;&gt;K -->
<g id="edge16" class="edge"><title>J&#45;&gt;K</title>
<path fill="none" stroke="blue" d="M152.155,-833.08C152.155,-844.519 152.155,-859.832 152.155,-872.962"/>
<polygon fill="blue" stroke="blue" points="148.655,-873.346 152.155,-883.346 155.655,-873.346 148.655,-873.346"/>
</g>
<!-- K&#45;&gt;L -->
<g id="edge17" class="edge"><title>K&#45;&gt;L</title>
<path fill="none" stroke="blue" d="M152.155,-919.587C152.155,-927.611 152.155,-937.353 152.155,-946.331"/>
<polygon fill="blue" stroke="blue" points="148.655,-946.371 152.155,-956.371 155.655,-946.371 148.655,-946.371"/>
</g>
<!-- M -->
<g id="node21" class="node"><title>M</title>
<ellipse fill="none" stroke="black" cx="152.155" cy="-1047.4" rx="27" ry="18"/>
<text text-anchor="middle" x="152.155" y="-1043.8" font-family="Times,serif" font-size="12.00">M</text>
</g>
<!-- L&#45;&gt;M -->
<g id="edge18" class="edge"><title>L&#45;&gt;M</title>
<path fill="none" stroke="blue" d="M152.155,-992.587C152.155,-1000.61 152.155,-1010.35 152.155,-1019.33"/>
<polygon fill="blue" stroke="blue" points="148.655,-1019.37 152.155,-1029.37 155.655,-1019.37 148.655,-1019.37"/>
</g>
<!-- N -->
<g id="node22" class="node"><title>N</title>
<ellipse fill="none" stroke="black" cx="152.155" cy="-1120.4" rx="27" ry="18"/>
<text text-anchor="middle" x="152.155" y="-1116.8" font-family="Times,serif" font-size="12.00">N</text>
</g>
<!-- M&#45;&gt;N -->
<g id="edge19" class="edge"><title>M&#45;&gt;N</title>
<path fill="none" stroke="blue" d="M152.155,-1065.59C152.155,-1073.61 152.155,-1083.35 152.155,-1092.33"/>
<polygon fill="blue" stroke="blue" points="148.655,-1092.37 152.155,-1102.37 155.655,-1092.37 148.655,-1092.37"/>
</g>
<!-- O -->
<g id="node23" class="node"><title>O</title>
<ellipse fill="none" stroke="black" cx="152.155" cy="-1206.8" rx="27" ry="18"/>
<text text-anchor="middle" x="152.155" y="-1203.2" font-family="Times,serif" font-size="12.00">O</text>
</g>
<!-- N&#45;&gt;O -->
<g id="edge20" class="edge"><title>N&#45;&gt;O</title>
<path fill="none" stroke="blue" d="M152.155,-1138.48C152.155,-1149.92 152.155,-1165.23 152.155,-1178.36"/>
<polygon fill="blue" stroke="blue" points="148.655,-1178.75 152.155,-1188.75 155.655,-1178.75 148.655,-1178.75"/>
</g>
<!-- release_3_0 -->
<g id="node29" class="node"><title>release_3_0</title>
<ellipse fill="none" stroke="black" cx="560.155" cy="-1206.8" rx="46.6387" ry="18"/>
<text text-anchor="middle" x="560.155" y="-1203.2" font-family="Times,serif" font-size="12.00">release_3_0</text>
</g>
<!-- N&#45;&gt;release_3_0 -->
<g id="edge29" class="edge"><title>N&#45;&gt;release_3_0</title>
<path fill="none" stroke="blue" d="M177.678,-1126.68C243.879,-1140.37 422.052,-1177.23 509.852,-1195.39"/>
<polygon fill="blue" stroke="blue" points="509.342,-1198.86 519.844,-1197.46 510.76,-1192.01 509.342,-1198.86"/>
<text text-anchor="middle" x="415.645" y="-1160" font-family="Times,serif" font-size="12.00">Jenkins merge</text>
</g>
<!-- release_1_0&#45;&gt;release_2_0 -->
<g id="edge21" class="edge"><title>release_1_0&#45;&gt;release_2_0</title>
<path fill="none" stroke="green" d="M560.155,-328.08C560.155,-339.519 560.155,-354.832 560.155,-367.962"/>
<polygon fill="green" stroke="green" points="556.655,-368.346 560.155,-378.346 563.655,-368.346 556.655,-368.346"/>
</g>
<!-- release_2_1 -->
<g id="node26" class="node"><title>release_2_1</title>
<ellipse fill="none" stroke="black" cx="560.155" cy="-555.8" rx="46.6387" ry="18"/>
<text text-anchor="middle" x="560.155" y="-552.2" font-family="Times,serif" font-size="12.00">release_2_1</text>
</g>
<!-- release_2_0&#45;&gt;release_2_1 -->
<g id="edge22" class="edge"><title>release_2_0&#45;&gt;release_2_1</title>
<path fill="none" stroke="green" d="M560.155,-414.544C560.155,-441.746 560.155,-495.034 560.155,-527.524"/>
<polygon fill="green" stroke="green" points="556.655,-527.677 560.155,-537.677 563.655,-527.677 556.655,-527.677"/>
</g>
<!-- hotfix_a -->
<g id="node30" class="node"><title>hotfix_a</title>
<ellipse fill="none" stroke="black" cx="432.155" cy="-469.4" rx="35.5247" ry="18"/>
<text text-anchor="middle" x="432.155" y="-465.8" font-family="Times,serif" font-size="12.00">hotfix_a</text>
</g>
<!-- release_2_0&#45;&gt;hotfix_a -->
<g id="edge35" class="edge"><title>release_2_0&#45;&gt;hotfix_a</title>
<path fill="none" stroke="red" d="M534.56,-411.597C514.388,-422.787 486.138,-438.457 464.417,-450.505"/>
<polygon fill="red" stroke="red" points="462.598,-447.511 455.551,-455.423 465.994,-453.633 462.598,-447.511"/>
</g>
<!-- release_2_2 -->
<g id="node27" class="node"><title>release_2_2</title>
<ellipse fill="none" stroke="black" cx="560.155" cy="-642.2" rx="46.6387" ry="18"/>
<text text-anchor="middle" x="560.155" y="-638.6" font-family="Times,serif" font-size="12.00">release_2_2</text>
</g>
<!-- release_2_1&#45;&gt;release_2_2 -->
<g id="edge23" class="edge"><title>release_2_1&#45;&gt;release_2_2</title>
<path fill="none" stroke="green" d="M560.155,-573.88C560.155,-585.319 560.155,-600.632 560.155,-613.762"/>
<polygon fill="green" stroke="green" points="556.655,-614.146 560.155,-624.146 563.655,-614.146 556.655,-614.146"/>
</g>
<!-- release_2_2&#45;&gt;release_2_3 -->
<g id="edge24" class="edge"><title>release_2_2&#45;&gt;release_2_3</title>
<path fill="none" stroke="green" d="M560.155,-660.475C560.155,-704.31 560.155,-820.133 560.155,-873.175"/>
<polygon fill="green" stroke="green" points="556.655,-873.2 560.155,-883.2 563.655,-873.2 556.655,-873.2"/>
</g>
<!-- release_2_3&#45;&gt;release_3_0 -->
<g id="edge25" class="edge"><title>release_2_3&#45;&gt;release_3_0</title>
<path fill="none" stroke="green" d="M560.155,-919.616C560.155,-933.995 560.155,-955.034 560.155,-973.4 560.155,-973.4 560.155,-973.4 560.155,-1121.4 560.155,-1140.51 560.155,-1162.06 560.155,-1178.6"/>
<polygon fill="green" stroke="green" points="556.655,-1178.67 560.155,-1188.67 563.655,-1178.67 556.655,-1178.67"/>
</g>
<!-- hotfix_a&#45;&gt;feature_b -->
<g id="edge38" class="edge"><title>hotfix_a&#45;&gt;feature_b</title>
<path fill="none" stroke="red" d="M399.012,-476.306C362.288,-482.95 301.355,-494.274 249.155,-505.4 191.335,-517.724 124.98,-533.631 82.5969,-544.018"/>
<polygon fill="red" stroke="red" points="81.7584,-540.619 72.8824,-546.404 83.4287,-547.417 81.7584,-540.619"/>
</g>
<!-- hotfix_a&#45;&gt;customize_b -->
<g id="edge39" class="edge"><title>hotfix_a&#45;&gt;customize_b</title>
<path fill="none" stroke="red" d="M420.402,-486.612C410.912,-500.018 397.486,-519.72 387.155,-537.8 370.41,-567.107 379.365,-583.756 354.155,-606.2 340.831,-618.063 323.271,-625.952 306.536,-631.178"/>
<polygon fill="red" stroke="red" points="305.468,-627.843 296.816,-633.958 307.393,-634.574 305.468,-627.843"/>
</g>
<!-- hotfix_a&#45;&gt;G -->
<g id="edge37" class="edge"><title>hotfix_a&#45;&gt;G</title>
<path fill="none" stroke="red" d="M400.795,-478.256C355.137,-489.932 267.877,-513.152 195.155,-537.8 191.601,-539.005 187.911,-540.336 184.253,-541.708"/>
<polygon fill="red" stroke="red" points="182.828,-538.507 174.761,-545.375 185.351,-545.036 182.828,-538.507"/>
</g>
<!-- hotfix_a&#45;&gt;release_2_1 -->
<g id="edge36" class="edge"><title>hotfix_a&#45;&gt;release_2_1</title>
<path fill="none" stroke="red" d="M444.065,-486.782C452.39,-497.317 464.291,-510.689 477.177,-519.8 488.673,-527.928 502.348,-534.668 515.247,-539.992"/>
<polygon fill="red" stroke="red" points="514.323,-543.389 524.91,-543.786 516.881,-536.873 514.323,-543.389"/>
<text text-anchor="middle" x="512.645" y="-509" font-family="Times,serif" font-size="12.00">Jenkins merge</text>
</g>
<!-- hotfix_b -->
<g id="node31" class="node"><title>hotfix_b</title>
<ellipse fill="none" stroke="black" cx="432.155" cy="-555.8" rx="36.3841" ry="18"/>
<text text-anchor="middle" x="432.155" y="-552.2" font-family="Times,serif" font-size="12.00">hotfix_b</text>
</g>
<!-- hotfix_a&#45;&gt;hotfix_b -->
<g id="edge26" class="edge"><title>hotfix_a&#45;&gt;hotfix_b</title>
<path fill="none" stroke="red" d="M432.155,-487.48C432.155,-498.919 432.155,-514.232 432.155,-527.362"/>
<polygon fill="red" stroke="red" points="428.655,-527.746 432.155,-537.746 435.655,-527.746 428.655,-527.746"/>
</g>
<!-- hotfix_b&#45;&gt;feature_d -->
<g id="edge42" class="edge"><title>hotfix_b&#45;&gt;feature_d</title>
<path fill="none" stroke="red" d="M418.208,-572.751C397.281,-595.657 355.458,-637.591 311.155,-660.2 290.943,-670.515 155.718,-701.595 83.8593,-717.693"/>
<polygon fill="red" stroke="red" points="82.734,-714.359 73.7383,-719.956 84.261,-721.19 82.734,-714.359"/>
</g>
<!-- hotfix_b&#45;&gt;customize_c -->
<g id="edge43" class="edge"><title>hotfix_b&#45;&gt;customize_c</title>
<path fill="none" stroke="red" d="M433.415,-573.828C434.639,-600.744 433.899,-654.02 413.155,-692.6 386.744,-741.72 330.878,-776.851 292.673,-796.298"/>
<polygon fill="red" stroke="red" points="290.779,-793.33 283.369,-800.903 293.884,-799.604 290.779,-793.33"/>
</g>
<!-- hotfix_b&#45;&gt;J -->
<g id="edge41" class="edge"><title>hotfix_b&#45;&gt;J</title>
<path fill="none" stroke="red" d="M424.089,-573.483C418.969,-583.386 411.869,-595.966 404.155,-606.2 383.915,-633.055 378.39,-640.474 351.155,-660.2 310.203,-689.861 289.77,-680.479 249.155,-710.6 217.775,-733.872 188.019,-768.035 169.936,-790.637"/>
<polygon fill="red" stroke="red" points="167.034,-788.665 163.598,-798.687 172.534,-792.995 167.034,-788.665"/>
</g>
<!-- hotfix_b&#45;&gt;release_2_2 -->
<g id="edge40" class="edge"><title>hotfix_b&#45;&gt;release_2_2</title>
<path fill="none" stroke="red" d="M447.062,-572.335C457.612,-582.767 472.45,-596.352 487.177,-606.2 497.205,-612.906 508.715,-619.05 519.584,-624.255"/>
<polygon fill="red" stroke="red" points="518.373,-627.552 528.918,-628.579 521.315,-621.2 518.373,-627.552"/>
<text text-anchor="middle" x="522.645" y="-595.4" font-family="Times,serif" font-size="12.00">Jenkins merge</text>
</g>
</g>
</svg>
