<?xml version="1.0" encoding="UTF-8" standalone="no"?>
<!DOCTYPE svg PUBLIC "-//W3C//DTD SVG 1.1//EN"
 "http://www.w3.org/Graphics/SVG/1.1/DTD/svg11.dtd">
<!-- Generated by graphviz version 2.38.0 (20140413.2041)
 -->
<!-- Title: g Pages: 1 -->
<svg width="811pt" height="579pt"
 viewBox="0.00 0.00 810.55 578.66" xmlns="http://www.w3.org/2000/svg" xmlns:xlink="http://www.w3.org/1999/xlink">
<g id="graph0" class="graph" transform="scale(1 1) rotate(0) translate(4 574.656)">
<title>g</title>
<polygon fill="white" stroke="none" points="-4,4 -4,-574.656 806.552,-574.656 806.552,4 -4,4"/>
<!-- node0 -->
<g id="node1" class="node"><title>node0</title>
<polygon fill="none" stroke="black" points="-7.10543e-15,-455.7 -7.10543e-15,-510.1 71.1024,-510.1 71.1024,-455.7 -7.10543e-15,-455.7"/>
<text text-anchor="middle" x="35.5512" y="-491.7" font-family="Times,serif" font-size="16.00">0x10ba8</text>
<polyline fill="none" stroke="black" points="-7.10543e-15,-482.9 71.1024,-482.9 "/>
<text text-anchor="middle" x="35.5512" y="-464.5" font-family="Times,serif" font-size="16.00"> </text>
</g>
<!-- node1 -->
<g id="node2" class="node"><title>node1</title>
<polygon fill="none" stroke="black" points="107.102,-451.5 107.102,-560.3 196.858,-560.3 196.858,-451.5 107.102,-451.5"/>
<text text-anchor="middle" x="151.98" y="-541.9" font-family="Times,serif" font-size="16.00">0xf7fc4380</text>
<polyline fill="none" stroke="black" points="107.102,-533.1 196.858,-533.1 "/>
<text text-anchor="middle" x="151.98" y="-514.7" font-family="Times,serif" font-size="16.00"> </text>
<polyline fill="none" stroke="black" points="107.102,-505.9 196.858,-505.9 "/>
<text text-anchor="middle" x="151.98" y="-487.5" font-family="Times,serif" font-size="16.00"> </text>
<polyline fill="none" stroke="black" points="107.102,-478.7 196.858,-478.7 "/>
<text text-anchor="middle" x="151.98" y="-460.3" font-family="Times,serif" font-size="16.00">&#45;1</text>
</g>
<!-- node0&#45;&gt;node1 -->
<g id="0" class="edge"><title>node0:f0&#45;&gt;node1:f0</title>
<path fill="none" stroke="black" d="M71.1024,-496.9C94.2068,-496.9 84.4571,-532.496 97.2946,-543.619"/>
<polygon fill="black" stroke="black" points="96.5086,-547.047 107.102,-546.9 98.7291,-540.409 96.5086,-547.047"/>
</g>
<!-- node2 -->
<g id="node3" class="node"><title>node2</title>
<polygon fill="none" stroke="black" points="107.102,-323.5 107.102,-432.3 196.858,-432.3 196.858,-323.5 107.102,-323.5"/>
<text text-anchor="middle" x="151.98" y="-413.9" font-family="Times,serif" font-size="16.00">0xf7fc44b8</text>
<polyline fill="none" stroke="black" points="107.102,-405.1 196.858,-405.1 "/>
<text text-anchor="middle" x="151.98" y="-386.7" font-family="Times,serif" font-size="16.00"> </text>
<polyline fill="none" stroke="black" points="107.102,-377.9 196.858,-377.9 "/>
<text text-anchor="middle" x="151.98" y="-359.5" font-family="Times,serif" font-size="16.00"> </text>
<polyline fill="none" stroke="black" points="107.102,-350.7 196.858,-350.7 "/>
<text text-anchor="middle" x="151.98" y="-332.3" font-family="Times,serif" font-size="16.00">2</text>
</g>
<!-- node0&#45;&gt;node2 -->
<g id="1" class="edge"><title>node0:f1&#45;&gt;node2:f0</title>
<path fill="none" stroke="black" d="M71.1024,-468.9C94.2068,-468.9 84.4571,-433.304 97.2946,-422.181"/>
<polygon fill="black" stroke="black" points="98.7291,-425.391 107.102,-418.9 96.5086,-418.753 98.7291,-425.391"/>
</g>
<!-- node3 -->
<g id="node4" class="node"><title>node3</title>
<polygon fill="none" stroke="black" points="610.123,-474.1 610.123,-555.7 802.552,-555.7 802.552,-474.1 610.123,-474.1"/>
<text text-anchor="middle" x="706.338" y="-537.3" font-family="Times,serif" font-size="16.00">3.43322790286038071e&#45;06</text>
<polyline fill="none" stroke="black" points="610.123,-528.5 802.552,-528.5 "/>
<text text-anchor="middle" x="706.338" y="-510.1" font-family="Times,serif" font-size="16.00">44.79998779296875</text>
<polyline fill="none" stroke="black" points="610.123,-501.3 802.552,-501.3 "/>
<text text-anchor="middle" x="706.338" y="-482.9" font-family="Times,serif" font-size="16.00">0</text>
</g>
<!-- node1&#45;&gt;node3 -->
<g id="2" class="edge"><title>node1:f0&#45;&gt;node3:f0</title>
<path fill="none" stroke="black" d="M196.858,-546.9C214.949,-546.9 215.297,-561.55 232.858,-565.9 271.579,-575.491 282.739,-567.088 322.613,-565.9 434.544,-562.565 463.438,-567.886 574.123,-550.9 586.477,-549.004 591.31,-544.813 600.104,-542.894"/>
<polygon fill="black" stroke="black" points="600.518,-546.371 610.123,-541.9 599.826,-539.405 600.518,-546.371"/>
</g>
<!-- node4 -->
<g id="node5" class="node"><title>node4</title>
<polygon fill="none" stroke="black" points="232.858,-424.5 232.858,-533.3 322.613,-533.3 322.613,-424.5 232.858,-424.5"/>
<text text-anchor="middle" x="277.735" y="-514.9" font-family="Times,serif" font-size="16.00">0xf7fc4380</text>
<polyline fill="none" stroke="black" points="232.858,-506.1 322.613,-506.1 "/>
<text text-anchor="middle" x="277.735" y="-487.7" font-family="Times,serif" font-size="16.00"> </text>
<polyline fill="none" stroke="black" points="232.858,-478.9 322.613,-478.9 "/>
<text text-anchor="middle" x="277.735" y="-460.5" font-family="Times,serif" font-size="16.00"> </text>
<polyline fill="none" stroke="black" points="232.858,-451.7 322.613,-451.7 "/>
<text text-anchor="middle" x="277.735" y="-433.3" font-family="Times,serif" font-size="16.00">2</text>
</g>
<!-- node1&#45;&gt;node4 -->
<g id="3" class="edge"><title>node1:f1&#45;&gt;node4:f0</title>
<path fill="none" stroke="black" d="M196.858,-519.9C208.858,-519.9 214.108,-519.9 222.733,-519.9"/>
<polygon fill="black" stroke="black" points="222.858,-523.4 232.858,-519.9 222.858,-516.4 222.858,-523.4"/>
</g>
<!-- node5 -->
<g id="node6" class="node"><title>node5</title>
<polygon fill="none" stroke="black" points="250.735,-74.5 250.735,-183.3 304.735,-183.3 304.735,-74.5 250.735,-74.5"/>
<text text-anchor="middle" x="277.735" y="-164.9" font-family="Times,serif" font-size="16.00">(nil)</text>
<polyline fill="none" stroke="black" points="250.735,-156.1 304.735,-156.1 "/>
<text text-anchor="middle" x="277.735" y="-137.7" font-family="Times,serif" font-size="16.00"> </text>
<polyline fill="none" stroke="black" points="250.735,-128.9 304.735,-128.9 "/>
<text text-anchor="middle" x="277.735" y="-110.5" font-family="Times,serif" font-size="16.00"> </text>
<polyline fill="none" stroke="black" points="250.735,-101.7 304.735,-101.7 "/>
<text text-anchor="middle" x="277.735" y="-83.3" font-family="Times,serif" font-size="16.00">&#45;1</text>
</g>
<!-- node1&#45;&gt;node5 -->
<g id="4" class="edge"><title>node1:f2&#45;&gt;node5:f0</title>
<path fill="none" stroke="black" d="M196.858,-491.9C262.679,-491.9 190.7,-248.449 232.858,-197.9 242.894,-185.866 263.119,-195.76 272.605,-192.646"/>
<polygon fill="black" stroke="black" points="275.694,-194.296 277.735,-183.9 269.656,-190.754 275.694,-194.296"/>
</g>
<!-- node4&#45;&gt;node3 -->
<g id="5" class="edge"><title>node4:f0&#45;&gt;node3:f0</title>
<path fill="none" stroke="black" d="M322.613,-519.9C447.264,-519.9 480.189,-540.713 599.824,-541.852"/>
<polygon fill="black" stroke="black" points="600.107,-545.353 610.123,-541.9 600.14,-538.353 600.107,-545.353"/>
</g>
<!-- node6 -->
<g id="node7" class="node"><title>node6</title>
<polygon fill="none" stroke="black" points="358.613,-397.5 358.613,-506.3 448.368,-506.3 448.368,-397.5 358.613,-397.5"/>
<text text-anchor="middle" x="403.49" y="-487.9" font-family="Times,serif" font-size="16.00">0xf7fc4380</text>
<polyline fill="none" stroke="black" points="358.613,-479.1 448.368,-479.1 "/>
<text text-anchor="middle" x="403.49" y="-460.7" font-family="Times,serif" font-size="16.00"> </text>
<polyline fill="none" stroke="black" points="358.613,-451.9 448.368,-451.9 "/>
<text text-anchor="middle" x="403.49" y="-433.5" font-family="Times,serif" font-size="16.00"> </text>
<polyline fill="none" stroke="black" points="358.613,-424.7 448.368,-424.7 "/>
<text text-anchor="middle" x="403.49" y="-406.3" font-family="Times,serif" font-size="16.00">1</text>
</g>
<!-- node4&#45;&gt;node6 -->
<g id="6" class="edge"><title>node4:f1&#45;&gt;node6:f0</title>
<path fill="none" stroke="black" d="M322.613,-492.9C334.613,-492.9 339.863,-492.9 348.488,-492.9"/>
<polygon fill="black" stroke="black" points="348.613,-496.4 358.613,-492.9 348.613,-489.4 348.613,-496.4"/>
</g>
<!-- node10 -->
<g id="node11" class="node"><title>node10</title>
<polygon fill="none" stroke="black" points="376.49,-240.5 376.49,-349.3 430.49,-349.3 430.49,-240.5 376.49,-240.5"/>
<text text-anchor="middle" x="403.49" y="-330.9" font-family="Times,serif" font-size="16.00">(nil)</text>
<polyline fill="none" stroke="black" points="376.49,-322.1 430.49,-322.1 "/>
<text text-anchor="middle" x="403.49" y="-303.7" font-family="Times,serif" font-size="16.00"> </text>
<polyline fill="none" stroke="black" points="376.49,-294.9 430.49,-294.9 "/>
<text text-anchor="middle" x="403.49" y="-276.5" font-family="Times,serif" font-size="16.00"> </text>
<polyline fill="none" stroke="black" points="376.49,-267.7 430.49,-267.7 "/>
<text text-anchor="middle" x="403.49" y="-249.3" font-family="Times,serif" font-size="16.00">&#45;1</text>
</g>
<!-- node4&#45;&gt;node10 -->
<g id="7" class="edge"><title>node4:f2&#45;&gt;node10:f0</title>
<path fill="none" stroke="black" d="M322.613,-464.9C380.703,-464.9 321.889,-351.521 365.366,-337.349"/>
<polygon fill="black" stroke="black" points="366.087,-340.781 375.49,-335.9 365.095,-333.852 366.087,-340.781"/>
</g>
<!-- node6&#45;&gt;node3 -->
<g id="8" class="edge"><title>node6:f0&#45;&gt;node3:f0</title>
<path fill="none" stroke="black" d="M448.368,-492.9C456.511,-492.9 565.112,-529.749 599.939,-539.537"/>
<polygon fill="black" stroke="black" points="599.591,-543.049 610.123,-541.9 601.173,-536.23 599.591,-543.049"/>
</g>
<!-- node7 -->
<g id="node8" class="node"><title>node7</title>
<polygon fill="none" stroke="black" points="484.368,-384.5 484.368,-493.3 574.123,-493.3 574.123,-384.5 484.368,-384.5"/>
<text text-anchor="middle" x="529.246" y="-474.9" font-family="Times,serif" font-size="16.00">0xf7fc4380</text>
<polyline fill="none" stroke="black" points="484.368,-466.1 574.123,-466.1 "/>
<text text-anchor="middle" x="529.246" y="-447.7" font-family="Times,serif" font-size="16.00"> </text>
<polyline fill="none" stroke="black" points="484.368,-438.9 574.123,-438.9 "/>
<text text-anchor="middle" x="529.246" y="-420.5" font-family="Times,serif" font-size="16.00"> </text>
<polyline fill="none" stroke="black" points="484.368,-411.7 574.123,-411.7 "/>
<text text-anchor="middle" x="529.246" y="-393.3" font-family="Times,serif" font-size="16.00">2</text>
</g>
<!-- node6&#45;&gt;node7 -->
<g id="9" class="edge"><title>node6:f1&#45;&gt;node7:f0</title>
<path fill="none" stroke="black" d="M448.368,-465.9C461.512,-465.9 465.568,-474.107 474.453,-477.953"/>
<polygon fill="black" stroke="black" points="473.881,-481.408 484.368,-479.9 475.23,-474.539 473.881,-481.408"/>
</g>
<!-- node9 -->
<g id="node10" class="node"><title>node9</title>
<polygon fill="none" stroke="black" points="502.246,-256.5 502.246,-365.3 556.246,-365.3 556.246,-256.5 502.246,-256.5"/>
<text text-anchor="middle" x="529.246" y="-346.9" font-family="Times,serif" font-size="16.00">(nil)</text>
<polyline fill="none" stroke="black" points="502.246,-338.1 556.246,-338.1 "/>
<text text-anchor="middle" x="529.246" y="-319.7" font-family="Times,serif" font-size="16.00"> </text>
<polyline fill="none" stroke="black" points="502.246,-310.9 556.246,-310.9 "/>
<text text-anchor="middle" x="529.246" y="-292.5" font-family="Times,serif" font-size="16.00"> </text>
<polyline fill="none" stroke="black" points="502.246,-283.7 556.246,-283.7 "/>
<text text-anchor="middle" x="529.246" y="-265.3" font-family="Times,serif" font-size="16.00">&#45;1</text>
</g>
<!-- node6&#45;&gt;node9 -->
<g id="10" class="edge"><title>node6:f2&#45;&gt;node9:f0</title>
<path fill="none" stroke="black" d="M448.368,-437.9C489.381,-437.9 462.108,-366.046 491.385,-353.696"/>
<polygon fill="black" stroke="black" points="492.035,-357.136 501.246,-351.9 490.78,-350.249 492.035,-357.136"/>
</g>
<!-- node7&#45;&gt;node1 -->
<g id="12" class="edge"><title>node7:f1&#45;&gt;node1:f0</title>
<path fill="none" stroke="black" d="M484.368,-452.9C452.119,-452.9 474.396,-496.86 448.368,-515.9 360.218,-580.384 312.43,-548.956 206.912,-546.994"/>
<polygon fill="black" stroke="black" points="206.89,-543.494 196.858,-546.9 206.824,-550.493 206.89,-543.494"/>
</g>
<!-- node7&#45;&gt;node3 -->
<g id="11" class="edge"><title>node7:f0&#45;&gt;node3:f0</title>
<path fill="none" stroke="black" d="M574.123,-479.9C601.755,-479.9 584.573,-526.525 600.302,-538.91"/>
<polygon fill="black" stroke="black" points="599.537,-542.335 610.123,-541.9 601.576,-535.639 599.537,-542.335"/>
</g>
<!-- node8 -->
<g id="node9" class="node"><title>node8</title>
<polygon fill="none" stroke="black" points="679.338,-329.5 679.338,-438.3 733.338,-438.3 733.338,-329.5 679.338,-329.5"/>
<text text-anchor="middle" x="706.338" y="-419.9" font-family="Times,serif" font-size="16.00">(nil)</text>
<polyline fill="none" stroke="black" points="679.338,-411.1 733.338,-411.1 "/>
<text text-anchor="middle" x="706.338" y="-392.7" font-family="Times,serif" font-size="16.00"> </text>
<polyline fill="none" stroke="black" points="679.338,-383.9 733.338,-383.9 "/>
<text text-anchor="middle" x="706.338" y="-365.5" font-family="Times,serif" font-size="16.00"> </text>
<polyline fill="none" stroke="black" points="679.338,-356.7 733.338,-356.7 "/>
<text text-anchor="middle" x="706.338" y="-338.3" font-family="Times,serif" font-size="16.00">&#45;1</text>
</g>
<!-- node7&#45;&gt;node8 -->
<g id="13" class="edge"><title>node7:f2&#45;&gt;node8:f0</title>
<path fill="none" stroke="black" d="M574.123,-424.9C616.822,-424.9 629.999,-424.9 668.085,-424.9"/>
<polygon fill="black" stroke="black" points="668.338,-428.4 678.338,-424.9 668.338,-421.4 668.338,-428.4"/>
</g>
<!-- node11 -->
<g id="node12" class="node"><title>node11</title>
<polygon fill="none" stroke="black" points="502.246,-128.5 502.246,-237.3 556.246,-237.3 556.246,-128.5 502.246,-128.5"/>
<text text-anchor="middle" x="529.246" y="-218.9" font-family="Times,serif" font-size="16.00">(nil)</text>
<polyline fill="none" stroke="black" points="502.246,-210.1 556.246,-210.1 "/>
<text text-anchor="middle" x="529.246" y="-191.7" font-family="Times,serif" font-size="16.00"> </text>
<polyline fill="none" stroke="black" points="502.246,-182.9 556.246,-182.9 "/>
<text text-anchor="middle" x="529.246" y="-164.5" font-family="Times,serif" font-size="16.00"> </text>
<polyline fill="none" stroke="black" points="502.246,-155.7 556.246,-155.7 "/>
<text text-anchor="middle" x="529.246" y="-137.3" font-family="Times,serif" font-size="16.00">&#45;1</text>
</g>
<!-- node10&#45;&gt;node11 -->
<g id="14" class="edge"><title>node10:f1&#45;&gt;node11:f0</title>
<path fill="none" stroke="black" d="M431.49,-308.9C476.543,-308.9 456.279,-236.662 491.126,-225.375"/>
<polygon fill="black" stroke="black" points="491.855,-228.806 501.246,-223.9 490.845,-221.879 491.855,-228.806"/>
</g>
<!-- node12 -->
<g id="node13" class="node"><title>node12</title>
<polygon fill="none" stroke="black" points="484.817,-0.5 484.817,-109.3 573.674,-109.3 573.674,-0.5 484.817,-0.5"/>
<text text-anchor="middle" x="529.246" y="-90.9" font-family="Times,serif" font-size="16.00">0xf7fc43e0</text>
<polyline fill="none" stroke="black" points="484.817,-82.1 573.674,-82.1 "/>
<text text-anchor="middle" x="529.246" y="-63.7" font-family="Times,serif" font-size="16.00"> </text>
<polyline fill="none" stroke="black" points="484.817,-54.9 573.674,-54.9 "/>
<text text-anchor="middle" x="529.246" y="-36.5" font-family="Times,serif" font-size="16.00"> </text>
<polyline fill="none" stroke="black" points="484.817,-27.7 573.674,-27.7 "/>
<text text-anchor="middle" x="529.246" y="-9.3" font-family="Times,serif" font-size="16.00">1</text>
</g>
<!-- node10&#45;&gt;node12 -->
<g id="15" class="edge"><title>node10:f2&#45;&gt;node12:f0</title>
<path fill="none" stroke="black" d="M431.49,-280.9C513.164,-280.9 409.057,-112.148 474.04,-96.9864"/>
<polygon fill="black" stroke="black" points="474.789,-100.427 484.368,-95.9 474.057,-93.4654 474.789,-100.427"/>
</g>
<!-- node11&#45;&gt;node1 -->
<g id="16" class="edge"><title>node11:f2&#45;&gt;node1:f0</title>
<path fill="none" stroke="black" d="M501.246,-168.9C339.436,-168.9 300.736,-268.016 232.858,-414.9 208.943,-466.65 251.673,-537.384 207.003,-546.024"/>
<polygon fill="black" stroke="black" points="206.519,-542.553 196.858,-546.9 207.122,-549.527 206.519,-542.553"/>
</g>
</g>
</svg>
